<svg width="29" height="31" viewBox="0 0 29 31" fill="none" xmlns="http://www.w3.org/2000/svg">
<path d="M12.5529 19.175L12.8413 18.7665L12.4972 18.5236L12.1994 18.8214L12.5529 19.175ZM1.70709 30.0208L1.35354 30.3744L1.70709 30.7279L2.06065 30.3744L1.70709 30.0208ZM0.999988 29.3137L0.646434 28.9602L0.292881 29.3137L0.646434 29.6673L0.999988 29.3137ZM11.7602 18.5535L12.1138 18.907L12.4931 18.5277L12.088 18.1759L11.7602 18.5535ZM18.3137 20.5C23.5604 20.5 27.8137 16.2467 27.8137 11H26.8137C26.8137 15.6944 23.0081 19.5 18.3137 19.5V20.5ZM8.8137 11C8.8137 16.2467 13.067 20.5 18.3137 20.5V19.5C13.6193 19.5 9.8137 15.6944 9.8137 11H8.8137ZM18.3137 1.5C13.067 1.5 8.8137 5.75329 8.8137 11H9.8137C9.8137 6.30558 13.6193 2.5 18.3137 2.5V1.5ZM27.8137 11C27.8137 5.75329 23.5604 1.5 18.3137 1.5V2.5C23.0081 2.5 26.8137 6.30558 26.8137 11H27.8137ZM18.3137 21.5C24.1127 21.5 28.8137 16.799 28.8137 11H27.8137C27.8137 16.2467 23.5604 20.5 18.3137 20.5V21.5ZM12.2646 19.5834C13.9747 20.7907 16.0621 21.5 18.3137 21.5V20.5C16.2753 20.5 14.3882 19.8586 12.8413 18.7665L12.2646 19.5834ZM12.1994 18.8214L1.35354 29.6673L2.06065 30.3744L12.9065 19.5285L12.1994 18.8214ZM2.06065 29.6673L1.35354 28.9602L0.646434 29.6673L1.35354 30.3744L2.06065 29.6673ZM1.35354 29.6673L12.1138 18.907L11.4067 18.1999L0.646434 28.9602L1.35354 29.6673ZM7.8137 11C7.8137 14.1668 9.21626 17.0066 11.4324 18.931L12.088 18.1759C10.0813 16.4334 8.8137 13.865 8.8137 11H7.8137ZM18.3137 0.5C12.5147 0.5 7.8137 5.20101 7.8137 11H8.8137C8.8137 5.75329 13.067 1.5 18.3137 1.5V0.5ZM28.8137 11C28.8137 5.20101 24.1127 0.5 18.3137 0.5V1.5C23.5604 1.5 27.8137 5.75329 27.8137 11H28.8137Z" fill="white"/>
</svg>
